<svg xmlns="http://www.w3.org/2000/svg" viewBox="0 0 30.887 32">
  <defs>
    <style>
      .cls-1 {
        fill: #fff;
      }
    </style>
  </defs>
  <g id="searchicon" transform="translate(-1768.034 0)">
    <g id="magnifying_glass" transform="translate(1768.034 0)">
      <g id="Group_1" data-name="Group 1">
        <path id="Path_1" data-name="Path 1" class="cls-1" d="M3.171,3.254a10.438,10.438,0,0,1,15.146,0,11.419,11.419,0,0,1,.8,14.781L30.921,30.283,29.266,32l-11.8-12.242a10.427,10.427,0,0,1-14.294-.792A11.405,11.405,0,0,1,3.171,3.254Zm1.5,14.157a8.375,8.375,0,0,0,12.152,0,9.151,9.151,0,0,0,0-12.606A8.375,8.375,0,0,0,4.67,4.8,9.151,9.151,0,0,0,4.67,17.411Z" transform="translate(-0.034 0)"/>
      </g>
    </g>
  </g>
</svg>
